# xmcd
#
# Track frame offsets: 
#        150
#        3801
#        33057
#        52679
#        71999
#        94009
#        113826
#        135969
#        140262
#        164048
#        186029
#        205511
#        270477
#        293542
#
# Disc length: 3966 seconds
#
# Revision: 0
# Processed by: cddbd v1.5.2PL0 Copyright (c) Steve Scherf et al.
# Submitted via: ExactAudioCopy v1.0b1
#
DISCID=b00f7c0e
DTITLE=Dave C. Norman - Higher ground
DYEAR=2011
DGENRE=Funk
TTITLE0=Intro Blues
TTITLE1=Higher Ground
TTITLE2=Ain't Nothin' Stoppin' Us Now
TTITLE3=Serpentine Fire
TTITLE4=What is Hip?
TTITLE5=Pick Up The Pieces
TTITLE6=Through The Fire
TTITLE7=Midway Blues
TTITLE8=Some Cat Phat
TTITLE9=Fire
TTITLE10=Let It Loose
TTITLE11=S.W.M.T.
TTITLE12=All In Love Is Fair
TTITLE13=Outtro Blues
EXTD=
EXTT0=
EXTT1=
EXTT2=
EXTT3=
EXTT4=
EXTT5=
EXTT6=
EXTT7=
EXTT8=
EXTT9=
EXTT10=
EXTT11=
EXTT12=
EXTT13=
PLAYORDER=
